<svg width="501" height="501" viewBox="0 0 501 501" fill="none" xmlns="http://www.w3.org/2000/svg">
<rect width="501" height="501" rx="50" fill="#00DD79"/>
<g opacity="0.3">
<path d="M116.833 401.885L133.357 323.511H100.736L116.995 245.14H149.881L171.464 142.771H249.02L245.606 158.935C266.418 145.547 288.856 138.853 312.919 138.853C333.406 138.853 350.64 143.588 364.623 153.057C378.606 162.527 388.362 175.426 393.89 191.753C399.513 207.439 400.335 225.235 396.353 245.14H429.171L412.912 323.511H379.761L367.059 383.477C331.91 387.077 303.16 393.643 286.111 401.885H285.604L316.821 254.94C319.748 240.245 317.634 228.489 310.48 219.673C303.326 210.529 292.595 205.958 278.287 205.958C269.182 205.958 260.727 207.591 252.923 210.856C245.118 213.795 237.964 218.53 231.461 225.061L198.24 383.521C163.281 387.131 134.692 393.676 117.709 401.885H116.833Z" fill="white"/>
</g>
<path d="M100.096 385.148L116.62 306.774H83.9985L100.258 228.403H133.144L154.727 126.034H232.283L228.869 142.198C249.68 128.81 272.118 122.115 296.182 122.115C316.668 122.115 333.903 126.85 347.886 136.32C361.869 145.79 371.625 158.689 377.153 175.016C382.776 190.702 383.597 208.498 379.616 228.403H412.434L396.175 306.774H363.023L350.322 366.74C315.173 370.34 286.423 376.906 269.373 385.148H268.866L300.084 238.203C303.011 223.508 300.897 211.752 293.743 202.936C286.589 193.792 275.858 189.221 261.55 189.221C252.445 189.221 243.99 190.853 236.185 194.119C228.381 197.058 221.227 201.793 214.723 208.324L181.502 366.784C146.544 370.393 117.954 376.939 100.971 385.148H100.096Z" fill="white"/>
</svg>
